PathFileType	4	(X/Y/Z)	/Users/niels/Desktop/University/Third Semester/Perception and Action/Exam/Gymnastics Motion Tracking/Code for Gym Tracking/Analyzed Data/Webcam_Backflip/id8_1_baseline_Sports2D/id8_1_baseline_Sports2D_px_person00.trc
DataRate	CameraRate	NumFrames	NumMarkers	Units	OrigDataRate	OrigDataStartFrame	OrigNumFrames
29.714285714285715	29.714285714285715	9	22	m	29.714285714285715	65	105
Frame#	Time	Hip			RHip			RKnee			RAnkle			RBigToe			RSmallToe			RHeel			LHip			LKnee			LAnkle			LBigToe			LSmallToe			LHeel			Neck			Head			Nose			RShoulder			RElbow			RWrist			LShoulder			LElbow			LWrist		
		X1	Y1	Z1	X2	Y2	Z2	X3	Y3	Z3	X4	Y4	Z4	X5	Y5	Z5	X6	Y6	Z6	X7	Y7	Z7	X8	Y8	Z8	X9	Y9	Z9	X10	Y10	Z10	X11	Y11	Z11	X12	Y12	Z12	X13	Y13	Z13	X14	Y14	Z14	X15	Y15	Z15	X16	Y16	Z16	X17	Y17	Z17	X18	Y18	Z18	X19	Y19	Z19	X20	Y20	Z20	X21	Y21	Z21	X22	Y22	Z22
65	2.1875	1.0381789623275306	-0.5022411941559628	0.0	1.0427006924375049	-0.5032139270997875	0.0	1.0662327579313362	-0.7305113267639451	0.0	0.9920506304745582	-0.9370527655554314	0.0	1.076108317656474	-0.9818270756455416	0.0	1.0577212926959183	-0.9932921331234662	0.0	0.9674820438840768	-0.9644421568693545	0.0	1.0318058004905513	-0.5042468407270789	0.0	1.0852253015729993	-0.6940280492039753	0.0	1.0244107087752552	-0.8920149988515106	0.0	1.1089477972425432	-0.9334092772480247	0.0	1.084532138601372	-0.9232786188697041	0.0	0.9835272990141464	-0.9174482952958531	0.0	1.0329377927258503	-0.22054844290733042	0.0	1.070613106804029	-0.12037481279295986	0.0	1.0881044819938155	-0.1701033272877821	0.0	1.0475552065539957	-0.22784415701543903	0.0	1.135082109308004	-0.12718191442658405	0.0	1.1591408782640658	-0.0518083151841567	0.0	0.9803384935836408	-0.24575437687073373	0.0	1.0221475379145224	-0.27542042835026126	0.0	1.0854362827772184	-0.29590586997559876	0.0
66	2.2211538461538463	1.0392218549295458	-0.52316403785493	0.0	1.0416589501335811	-0.5243640967003665	0.0	1.0781190517694987	-0.7445979832381391	0.0	0.9906486759538492	-0.9456886928716508	0.0	1.0785940159621523	-0.988476970640032	0.0	1.0592915152847229	-0.9996838172947914	0.0	0.9653240447696857	-0.9716790496200931	0.0	1.034614890629608	-0.5244242642826606	0.0	1.1052772645810387	-0.6976563206322187	0.0	1.0365440970714939	-0.889195938286734	0.0	1.120084639699257	-0.92724988220829	0.0	1.0975488472033184	-0.9120838819762404	0.0	0.9914056983593383	-0.912067152228016	0.0	1.0268331772987243	-0.24258205984710748	0.0	1.0685342054345046	-0.13199457329662947	0.0	1.0846730930816775	-0.1934057061077835	0.0	1.0379908347139923	-0.2525188671509822	0.0	1.1437924428773345	-0.17645097644059796	0.0	1.1842717649411754	-0.1033473297329101	0.0	0.9778966060536329	-0.2680913822048999	0.0	1.0387970908599748	-0.2935211237017951	0.0	1.104083150173696	-0.2916656697351381	0.0
67	2.254807692307692	1.0402681810363483	-0.5356836856582671	0.0	1.0407972834800352	-0.5366459421437612	0.0	1.0868908068571737	-0.7519810436693277	0.0	0.9896634839247338	-0.9492265286252711	0.0	1.0808687791019462	-0.9918587299075751	0.0	1.060484902547291	-1.0024496200704631	0.0	0.963855330128609	-0.9744000756972825	0.0	1.0379515523848724	-0.5361875876845718	0.0	1.1192333041553093	-0.6973686280775632	0.0	1.0454819595975733	-0.8826469134019329	0.0	1.1276568095064272	-0.9201181220080511	0.0	1.1113482337702567	-0.8996646981273507	0.0	0.9979372178751302	-0.9037088498098674	0.0	1.0210433698817492	-0.25600467702817886	0.0	1.0661643108092427	-0.13719253690044708	0.0	1.0817260980123364	-0.20850091530134143	0.0	1.0277284072175592	-0.2699860295130204	0.0	1.1458650646748054	-0.22968905874878365	0.0	1.2094607616337958	-0.1668186230543046	0.0	0.977832139469346	-0.28269855771056596	0.0	1.0572281028096873	-0.3160077200334624	0.0	1.1265577056160552	-0.3013214337074522	0.0
68	2.2884615384615383	1.0408484113117722	-0.5396987056666595	0.0	1.040606919745345	-0.5400924242675919	0.0	1.0913888375271323	-0.7529946608007236	0.0	0.9892207449653929	-0.9490558690945328	0.0	1.082751642646198	-0.9926270940644969	0.0	1.061546615481722	-1.0025310834553456	0.0	0.9631704413835083	-0.9741426952940981	0.0	1.0399540512813588	-0.5396542145978576	0.0	1.1219179284857654	-0.6976427496757862	0.0	1.0464479990031748	-0.8791808361329837	0.0	1.1283768283803326	-0.9171029862712808	0.0	1.1206159145051209	-0.8937668492905861	0.0	0.9990388880015838	-0.8990834554326259	0.0	1.0163054377108334	-0.2604271537757076	0.0	1.0631523788627535	-0.1362732616876316	0.0	1.0792609853102402	-0.21433295830761567	0.0	1.0190466162628316	-0.2793212048870245	0.0	1.1408626315235044	-0.2812025694421429	0.0	1.2296752918725895	-0.2370069598017277	0.0	0.9797100880802422	-0.28917534317720883	0.0	1.0738019621467043	-0.3386476363496974	0.0	1.1507765771288054	-0.3219192114600542	0.0
69	2.3221153846153846	1.0404198677388328	-0.5371599854855322	0.0	1.0410640081233857	-0.5367851234221275	0.0	1.0914059244629029	-0.7492109105709946	0.0	0.9892537862623872	-0.9467893541535056	0.0	1.0839247628341702	-0.9915217696789865	0.0	1.0624331591829963	-1.0009014464019006	0.0	0.9630738486938369	-0.9723339611245406	0.0	1.0387274103075972	-0.5367617120598498	0.0	1.1130269637049708	-0.7005192854957835	0.0	1.0382094366921801	-0.8827327969111813	0.0	1.1216606045430226	-0.9203616139728975	0.0	1.1208798627316339	-0.8982666031188694	0.0	0.9931012039479216	-0.9020268752212907	0.0	1.0136078759393672	-0.25764268915540234	0.0	1.0601947357301498	-0.13051241469922403	0.0	1.0778540063013131	-0.2122823694609732	0.0	1.0147747848693638	-0.28118187032211794	0.0	1.1311816957622758	-0.3250997238520029	0.0	1.240325377171366	-0.3073928795596672	0.0	0.9826829845491596	-0.2888119607166651	0.0	1.0852057524320144	-0.35820909202210416	0.0	1.1710653473587402	-0.3509240850532948	0.0
70	2.355769230769231	1.0388636743254904	-0.5309171945564276	0.0	1.0417231810375822	-0.5297386470025482	0.0	1.0876780518942375	-0.7428071880956948	0.0	0.9896352187311582	-0.9438465128466574	0.0	1.084156738315981	-0.9895563255502471	0.0	1.0628774161018395	-0.9986344425626925	0.0	0.9632946383139828	-0.9700395906246394	0.0	1.034151876531108	-0.5301930057662279	0.0	1.0973682439642025	-0.7046869260698019	0.0	1.024799274915943	-0.8914057620566882	0.0	1.1105807161513612	-0.9277582105830005	0.0	1.1125142574324955	-0.9106154523709051	0.0	0.9828207596175751	-0.9107835604695673	0.0	1.013854459562508	-0.2504534290876512	0.0	1.0583156309745243	-0.12178207039624506	0.0	1.0783124168961862	-0.20495400370546749	0.0	1.0162851866844242	-0.2774580707433338	0.0	1.1200964008366285	-0.3577527818590228	0.0	1.2391627439221835	-0.37192095556167104	0.0	0.9863435983294723	-0.2838994227710185	0.0	1.0898966306057682	-0.37405354476926345	0.0	1.1807838671096726	-0.38701632675792824	0.0
71	2.3894230769230766	1.036603854735203	-0.5236035190534465	0.0	1.0421178049035444	-0.5217254655787357	0.0	1.081380267246648	-0.7359368376453317	0.0	0.9901807717635512	-0.9412544582019432	0.0	1.083381339678517	-0.9877462298398774	0.0	1.0625693826204365	-0.9966622745703168	0.0	0.9636021592659031	-0.967954498180765	0.0	1.0279185845859302	-0.5223862495321264	0.0	1.0805621357823816	-0.7082545256252621	0.0	1.011747655011163	-0.9008032957169985	0.0	1.0992573438174666	-0.9356743684737325	0.0	1.0998642073434688	-0.9250304440323185	0.0	0.9724131269268661	-0.920880372957924	0.0	1.0174293819939135	-0.24163808441252405	0.0	1.0583274097619957	-0.11208010776473704	0.0	1.081206387280345	-0.19511924012781962	0.0	1.0227423015550028	-0.2706005856198142	0.0	1.110011798978032	-0.378912190766229	0.0	1.227267476417876	-0.42643250236035746	0.0	0.9909563903552131	-0.27683567996900754	0.0	1.0887346755883056	-0.38615448108023864	0.0	1.1777191760492607	-0.4261247412623945	0.0
72	2.423076923076923	1.0342686723966226	-0.5170710188227938	0.0	1.0420130028656482	-0.5146650566166135	0.0	1.0736198276864841	-0.7302533708911365	0.0	0.9906847595797145	-0.9396388304901183	0.0	1.0817331205493694	-0.9866624422804389	0.0	1.0614010987595854	-0.9954804026334443	0.0	0.96388030778542	-0.9664796177593347	0.0	1.021991769207431	-0.5150919340183958	0.0	1.0658837482735288	-0.7106090768786538	0.0	1.002110196998032	-0.908216017153997	0.0	1.0903981463300705	-0.9419117306869222	0.0	1.0874524099243388	-0.9370534227406043	0.0	0.9644940821451113	-0.9291005841751815	0.0	1.0240000714051434	-0.23333889312617143	0.0	1.0607092354777996	-0.10311173946641845	0.0	1.0865883903646527	-0.1851590974939056	0.0	1.0320834858759236	-0.26292725792221544	0.0	1.1019687352897507	-0.39097597485393104	0.0	1.2080964691207015	-0.469167798058762	0.0	0.9969572406102027	-0.2694724504361014	0.0	1.0838871882308894	-0.39447864854634	0.0	1.165317545904615	-0.46239495107635115	0.0
73	2.456730769230769	1.0323172890739616	-0.5123439220368121	0.0	1.0413595326102525	-0.5095939694381149	0.0	1.0652976054467724	-0.7266150062706631	0.0	0.9909745759322738	-0.9392491185138727	0.0	1.0795586729273905	-0.9863384281453587	0.0	1.0596103734663005	-0.9951001400167865	0.0	0.9641313640906596	-0.9658119878506175	0.0	1.0174825706132427	-0.5093460553658127	0.0	1.0544473041128783	-0.7120559074253889	0.0	0.9962232781002839	-0.913161030551349	0.0	1.0851568629408814	-0.9460250844885262	0.0	1.0781019789414108	-0.9449733381835865	0.0	0.9598444427667752	-0.9344451064807272	0.0	1.0326293373169435	-0.22683228990028675	0.0	1.065564249045593	-0.09601232847497705	0.0	1.0940290300323172	-0.1767330548706528	0.0	1.0423320548913577	-0.25619274922047586	0.0	1.0959214452879027	-0.3973854076997313	0.0	1.1855743014840676	-0.5006731436633325	0.0	1.0045086852231568	-0.2629701101411722	0.0	1.0774253865556058	-0.3995348575677382	0.0	1.1491568851752678	-0.49143093233572754	0.0
